<?xml version="1.0" encoding="iso-8859-1"?>
<!-- Generator: Adobe Illustrator 19.0.0, SVG Export Plug-In . SVG Version: 6.00 Build 0)  -->
<svg version="1.1" id="Capa_1" xmlns="http://www.w3.org/2000/svg" xmlns:xlink="http://www.w3.org/1999/xlink" x="0px" y="0px"
	 viewBox="0 0 512.001 512.001" style="enable-background:new 0 0 512.001 512.001;" xml:space="preserve">
<g>
	<g>
		<path d="M496.733,466.139H15.267c-8.291,0-15,6.709-15,15c0,8.291,6.709,15,15,15h481.465c8.291,0,15-6.709,15-15
			C511.732,472.848,505.024,466.139,496.733,466.139z"/>
	</g>
</g>
<g>
	<g>
		<path d="M490.083,143.859L383.548,37.79c-29.253-29.253-76.846-29.224-106.069,0L148.382,166.886l212.135,212.135l129.566-129.093
			C519.307,220.69,519.307,173.097,490.083,143.859z"/>
	</g>
</g>
<g>
	<g>
		<path d="M127.171,188.097L21.918,292.35c-29.224,29.238-29.224,76.831,0,106.069l37.725,37.72h243.752l35.911-35.907
			L127.171,188.097z"/>
	</g>
</g>
<g>
</g>
<g>
</g>
<g>
</g>
<g>
</g>
<g>
</g>
<g>
</g>
<g>
</g>
<g>
</g>
<g>
</g>
<g>
</g>
<g>
</g>
<g>
</g>
<g>
</g>
<g>
</g>
<g>
</g>
</svg>
