<?xml version="1.0" standalone="no"?>
<!DOCTYPE svg PUBLIC "-//W3C//DTD SVG 20010904//EN"
 "http://www.w3.org/TR/2001/REC-SVG-20010904/DTD/svg10.dtd">
<svg version="1.0" xmlns="http://www.w3.org/2000/svg"
 width="512.000000pt" height="512.000000pt" viewBox="0 0 512.000000 512.000000"
 preserveAspectRatio="xMidYMid meet">
<metadata>
Created by potrace 1.11, written by Peter Selinger 2001-2013
</metadata>
<g transform="translate(0.000000,512.000000) scale(0.100000,-0.100000)"
fill="#000000" stroke="none">
<path d="M3985 5107 c-12 -7 -809 -799 -1772 -1760 l-1750 -1748 -23 -77 c-12
-42 -31 -105 -42 -140 -11 -34 -21 -68 -22 -75 -1 -7 -5 -18 -9 -24 -5 -7 -6
-13 -4 -13 3 0 -1 -21 -9 -48 -38 -122 -106 -359 -110 -377 -2 -12 -12 -46
-23 -78 -11 -31 -17 -57 -14 -57 3 0 1 -6 -4 -13 -6 -6 -13 -25 -17 -42 -4
-16 -18 -66 -31 -110 -38 -127 -76 -258 -80 -279 -3 -11 -11 -40 -20 -66 -9
-26 -18 -55 -20 -66 -3 -10 -11 -43 -20 -73 -8 -30 -13 -56 -11 -58 2 -2 37 6
77 18 41 11 94 26 119 32 25 6 47 13 50 16 3 4 14 7 25 9 11 2 48 12 82 23 34
11 71 21 82 22 12 1 21 4 21 7 0 4 6 7 13 8 34 2 211 55 215 65 2 4 8 5 12 2
5 -3 35 4 68 15 33 11 70 23 83 26 40 9 54 12 54 14 0 1 7 3 15 5 8 1 71 20
140 40 69 21 154 46 190 56 36 10 99 27 140 39 41 12 82 23 90 25 8 2 15 4 15
5 0 1 8 3 17 5 79 15 75 12 1839 1775 1923 1923 1778 1769 1765 1883 -6 45
-68 204 -84 217 -4 3 -16 23 -27 45 -11 22 -25 47 -32 55 -6 8 -35 47 -64 85
-247 326 -632 610 -842 621 -35 1 -71 -2 -82 -9z"/>
</g>
</svg>
